<?xml version="1.0" encoding="utf-8"?>
<!-- Generator: Adobe Illustrator 16.0.0, SVG Export Plug-In . SVG Version: 6.00 Build 0)  -->
<!DOCTYPE svg PUBLIC "-//W3C//DTD SVG 1.1//EN" "http://www.w3.org/Graphics/SVG/1.1/DTD/svg11.dtd">
<svg version="1.1" id="Layer_1" xmlns="http://www.w3.org/2000/svg" xmlns:xlink="http://www.w3.org/1999/xlink" x="0px" y="0px"
	 width="1790.277px" height="485.164px" viewBox="0 0 1790.277 485.164" enable-background="new 0 0 1790.277 485.164"
	 xml:space="preserve">
<g>
	<path fill="#FFFFFF" d="M1221.917,174.375c-0.252,0.036-0.504,0.072-0.756,0.108c-6.117-30.813-12.295-61.615-18.271-92.456
		c-0.699-3.608-1.943-5.053-5.771-4.848c-6.146,0.329-12.333,0.275-18.487,0.014c-3.367-0.143-4.517,1.036-5.069,4.315
		c-3.396,20.173-7.02,40.307-10.578,60.452c-1.804,10.211-3.628,20.419-5.443,30.628c-1.165-0.82-1.533-1.654-1.713-2.527
		c-5.993-29.152-11.938-58.315-18.035-87.446c-0.33-1.576-1.884-4.099-2.938-4.134c-9.603-0.321-19.221-0.188-28.963-0.188
		c0.102,1.479,0.041,2.33,0.23,3.123c10.562,44.307,21.172,88.603,31.653,132.93c0.609,2.575,1.458,3.688,4.196,3.642
		c7.996-0.135,15.997-0.136,23.992,0c2.786,0.047,3.551-1.104,4.053-3.711c4.845-25.147,9.853-50.264,14.841-75.383
		c0.521-2.62,1.215-5.206,2.122-9.05c0.66,1.885,0.875,2.335,0.976,2.811c5.687,27.006,11.416,54.003,16.968,81.036
		c0.66,3.215,1.868,4.428,5.216,4.324c7.491-0.23,15-0.244,22.489,0.005c3.482,0.115,4.787-0.95,5.59-4.469
		c8.767-38.414,17.76-76.775,26.683-115.153c1.521-6.539,2.996-13.088,4.604-20.124c-9.519,0-18.166-0.141-26.798,0.153
		c-1.278,0.044-3.305,1.967-3.595,3.318c-1.918,8.938-3.463,17.955-5.117,26.948
		C1229.966,130.587,1225.943,152.482,1221.917,174.375z"/>
	<path fill="#FFFFFF" d="M1048.763,414.25c0-26.732,0.53-52.886-0.248-79c-0.336-11.275-7.09-19.627-18.292-23.251
		c-15.272-4.939-31.664-0.117-42.023,12.074c-0.729,0.858-1.485,1.692-2.276,2.592c-15.01-21.171-35.988-22.354-58.767-3.318
		c-0.499-2.878-0.753-5.652-1.54-8.266c-0.332-1.104-1.76-2.631-2.736-2.665c-6.596-0.236-13.205-0.123-19.916-0.123
		c0,34.364,0,68.07,0,101.954c8.135,0,15.888,0,24.297,0c0-2.024,0-3.799,0-5.572c0-19.495-0.016-38.99,0.022-58.485
		c0.005-2.153,0.093-4.351,0.523-6.449c1.825-8.889,11.514-15.231,21.34-14.107c9.636,1.103,14.05,6.446,14.056,17.069
		c0.01,20.661,0.003,41.322,0.003,61.984c0,1.778,0,3.557,0,5.561c8.575,0,16.487,0,25.056,0c0-2.192,0-4.134,0-6.075
		c0.002-20.161-0.097-40.323,0.045-60.484c0.072-10.447,8.863-18.306,19.816-18.149c10.789,0.154,16.078,5.945,16.081,17.636
		c0.006,20.495,0.002,40.99,0.002,61.484c0,1.781,0,3.562,0,5.592C1032.761,414.25,1040.671,414.25,1048.763,414.25z"/>
	<path fill="#FFFFFF" d="M601.354,186.309c-2.364-8.158-4.42-15.142-6.411-22.144c-7.724-27.182-15.395-54.379-23.217-81.532
		c-0.464-1.61-2.024-4.092-3.154-4.136c-8.775-0.345-17.57-0.19-26.935-0.19c0.921,3.198,1.632,5.73,2.378,8.251
		c12.447,42.073,24.963,84.126,37.246,126.247c1.217,4.174,3.105,5.383,7.266,5.234c8.819-0.313,17.662-0.276,26.483-0.01
		c3.693,0.111,5.067-1.159,6.09-4.688c7.817-26.981,15.901-53.885,23.894-80.814c5.292-17.83,10.569-35.664,16.071-54.23
		c-9.307,0-18.08-0.131-26.838,0.163c-1.111,0.038-2.681,2.134-3.127,3.562c-2.23,7.137-4.145,14.373-6.192,21.567
		C617.178,130.75,609.441,157.91,601.354,186.309z"/>
	<path fill="#FFFFFF" d="M816.819,114.984c-0.244,0.71-0.54,1.168-0.54,1.627c-0.031,24.33-0.385,48.668,0.099,72.989
		c0.247,12.441,5.138,23.163,18.097,27.146c14.149,4.349,27.658,2.642,39.284-7.514c1.174-1.025,2.277-2.133,3.734-3.504
		c0.792,4.015,1.429,7.243,2.071,10.5c7.667,0,15.051,0,22.307,0c0-33.954,0-67.529,0-101.254c-8.146,0-15.9,0-24.285,0
		c0,2.029,0,3.812,0,5.596c0,18.831,0.018,37.663-0.022,56.495c-0.005,2.489-0.124,5.007-0.508,7.461
		c-1.425,9.106-11.125,15.953-21.158,15.061c-9.87-0.879-14.63-6.44-14.633-17.129c-0.006-20.498-0.002-40.997-0.002-61.495
		c0-1.932,0-3.864,0-5.979C832.632,114.984,824.723,114.984,816.819,114.984z"/>
	<path fill="#FFFFFF" d="M1486.586,197.888c0,4.518,0.194,8.479-0.061,12.409c-0.214,3.297,0.933,4.843,4.263,5.244
		c6.269,0.756,12.48,2.279,18.76,2.592c13.422,0.667,26.967,1.978,39.943-3.27c11.798-4.771,17.627-13.698,18.119-26.197
		c0.494-12.532-4.5-22.039-16.243-27.22c-4.53-1.998-9.36-3.353-14.118-4.791c-5.864-1.774-11.92-2.991-17.652-5.103
		c-3.795-1.398-6.072-4.694-5.692-9.068c0.386-4.432,3.358-6.909,7.329-7.78c3.692-0.811,7.555-1.092,11.35-1.149
		c9.93-0.15,19.863-0.051,29.952-0.051c0-5.913,0-11.164,0-17.171c-9.049-1.222-17.888-2.91-26.8-3.493
		c-11.336-0.741-22.669-0.104-33.178,5.068c-11.049,5.439-15.986,14.418-15.57,26.67c0.393,11.593,5.41,20.206,16.087,24.842
		c5.287,2.296,11.046,3.514,16.604,5.178c5.389,1.613,11.082,2.554,16.117,4.911c6.34,2.968,6.788,11.112,0.965,15.051
		c-2.732,1.848-6.381,2.836-9.72,3.177c-5.11,0.521-10.312,0.148-15.476,0.15C1503.447,197.89,1495.327,197.888,1486.586,197.888z"
		/>
	<path fill="#FFFFFF" d="M717.586,197.887c0,4.683,0.228,8.673-0.068,12.624c-0.262,3.489,1.293,4.819,4.455,5.04
		c14.074,0.98,28.14,2.546,42.222,2.697c6.076,0.064,12.484-2.066,18.214-4.462c11.214-4.688,15.902-14.208,16.164-25.907
		c0.25-11.17-3.911-20.455-14.353-25.388c-6.389-3.019-13.44-4.658-20.233-6.793c-4.267-1.342-8.727-2.144-12.879-3.757
		c-4.2-1.631-6.748-4.905-6.236-9.735c0.473-4.462,3.617-6.637,7.549-7.587c2.873-0.694,5.894-1.033,8.854-1.067
		c10.601-0.122,21.205-0.048,32.081-0.048c0-5.848,0-11.094,0-16.5c-2.812-0.651-5.375-1.331-7.973-1.832
		c-15.677-3.022-31.386-4.234-46.898,0.665c-13.125,4.146-20.276,13.408-20.557,25.785c-0.339,14.984,5.556,24.004,19.281,29.246
		c2.937,1.121,6.008,1.908,9.05,2.728c6.406,1.726,12.907,3.138,19.224,5.136c3.739,1.183,6.075,4.123,6.049,8.3
		c-0.026,4.254-2.195,7.512-6.019,8.984c-3.019,1.162-6.429,1.739-9.677,1.791C743.377,198.005,730.913,197.887,717.586,197.887z"/>
	<path fill="#FFFFFF" d="M1112.182,331.987c15.721,0,31.118,0,47.37,0c-1.434,2.011-2.311,3.331-3.277,4.582
		c-14.474,18.699-28.975,37.378-43.414,56.104c-1.178,1.528-2.673,3.316-2.79,5.066c-0.364,5.418-0.133,10.877-0.133,16.401
		c27.945,0,55.315,0,82.637,0c0-6.608,0-12.848,0-19.628c-17.022,0-33.705,0-51.061,0c1.206-1.759,1.884-2.861,2.671-3.88
		c13.454-17.383,26.395-35.203,40.61-51.939c7.034-8.282,6.173-16.788,5.702-26.157c-26.242,0-52.15,0-78.315,0
		C1112.182,318.902,1112.182,325.001,1112.182,331.987z"/>
	<path fill="#FFFFFF" d="M842.683,331.49c0-6.807,0-12.911,0-19.758c-8.425,0-16.625,0-25.043,0c0-8.402,0.113-16.064-0.104-23.717
		c-0.04-1.382-1.203-3.682-2.242-3.935c-8.276-2.013-11.271-0.282-14.452,7.709c-0.923,2.318-2.11,4.565-2.742,6.96
		c-2.45,9.285-6.839,16.314-17.696,16.785c-1.085,0.047-2.946,1.53-3.012,2.45c-0.319,4.402-0.143,8.841-0.143,13.591
		c5.441,0,10.072,0,15.337,0c0,2.302-0.01,4.252,0.001,6.202c0.116,18.491,0.023,36.987,0.434,55.473
		c0.25,11.278,6.729,19.264,17.078,21.936c10.338,2.67,20.491,1.412,30.394-2.202c0.988-0.36,2.262-1.668,2.307-2.59
		c0.232-4.759,0.108-9.535,0.108-14.689c-5.262,0-9.898,0.044-14.533-0.01c-8.538-0.1-10.71-2.237-10.724-10.608
		c-0.027-16.165-0.016-32.33,0.005-48.495c0.002-1.592,0.179-3.185,0.294-5.102C826.354,331.49,834.302,331.49,842.683,331.49z"/>
	<path fill="#FFFFFF" d="M1622.035,133.619c5.221,0,9.965,0,15.17,0c0,2.329,0,4.121,0,5.913
		c0.001,16.995-0.094,33.992,0.029,50.987c0.117,16.429,6.811,25.456,20.881,27.696c9.154,1.457,18.272,0.536,26.984-2.854
		c1.115-0.434,2.523-1.886,2.588-2.94c0.284-4.61,0.123-9.248,0.123-14.533c-4.57,0-8.684,0.002-12.797-0.001
		c-11.429-0.007-12.749-1.301-12.751-12.515c-0.003-15.329-0.001-30.659-0.001-45.988c0-1.784,0-3.569,0-5.941
		c8.833,0,17.057,0,25.278,0c0-6.521,0-12.443,0-18.972c-8.481,0-16.696,0-25.359,0c0-9.525,0-18.451,0-27.289
		c-13.121-2.035-13.236-1.97-17.728,9.618c-0.661,1.707-1.576,3.354-1.968,5.12c-2.073,9.345-7.132,15.237-17.266,15.914
		c-1.12,0.075-2.942,1.812-3.039,2.901C1621.817,124.827,1622.035,128.969,1622.035,133.619z"/>
	<path fill="#FFFFFF" d="M1062.746,198.595c-1.318-0.27-2.279-0.561-3.258-0.651c-10.057-0.933-10.564-1.469-10.564-11.413
		c0-35.456,0-70.912,0-106.367c0-1.788,0-3.576,0-5.46c-8.535,0-16.546,0-24.733,0c-0.067,1.396-0.157,2.376-0.157,3.356
		c-0.008,38.285-0.037,76.571,0.044,114.856c0.007,3.468,0.452,6.993,1.183,10.387c1.216,5.65,4.211,10.187,9.872,12.277
		c8.94,3.303,18.157,3.205,27.614,2.169C1062.746,211.268,1062.746,205.138,1062.746,198.595z"/>
	<path fill="#FFFFFF" d="M1314.868,312.287c0,34.476,0,68.055,0,101.888c8.166,0,16.047,0,24.394,0c0-2.127,0-3.932,0-5.735
		c0-16.984-0.008-33.968,0.004-50.951c0.008-13.199,6.15-20.267,19.371-22.093c4.229-0.585,8.51-0.796,12.893-1.189
		c0-7.941,0-15.681,0-23.703c-14.166-0.156-24.811,5.55-32.383,18.253c-0.575-5.055-0.802-9.053-1.596-12.934
		c-0.271-1.328-1.917-3.323-3.016-3.378C1328.103,312.123,1321.649,312.287,1314.868,312.287z"/>
	<path fill="#FFFFFF" d="M674.899,114.872c0,34.15,0,67.834,0,101.628c8.328,0,16.335,0,24.341,0c0-34.124,0-67.801,0-101.628
		C691.055,114.872,683.271,114.872,674.899,114.872z"/>
	<path fill="#FFFFFF" d="M1609.8,216.657c0-34.309,0-67.976,0-101.588c-8.357,0-16.247,0-24.237,0c0,34.044,0,67.726,0,101.588
		C1593.833,216.657,1601.744,216.657,1609.8,216.657z"/>
	<path fill="#FFFFFF" d="M1093.537,312.941c-8.333,0-16.234,0-24.235,0c0,33.891,0,67.445,0,101.282c8.168,0,16.06,0,24.235,0
		C1093.537,380.404,1093.537,346.849,1093.537,312.941z"/>
	<path fill="#FFFFFF" d="M882.281,414.216c0-33.961,0-67.632,0-101.354c-8.293,0-16.223,0-24.311,0c0,33.908,0,67.561,0,101.354
		C866.256,414.216,874.156,414.216,882.281,414.216z"/>
	<path fill="#FFFFFF" d="M1069.41,271.957c0,9.364,0,18.384,0,27.292c8.288,0,16.186,0,24.104,0c0-9.256,0-18.152,0-27.292
		C1085.441,271.957,1077.674,271.957,1069.41,271.957z"/>
	<path fill="#FFFFFF" d="M882.364,272.005c-8.424,0-16.328,0-24.377,0c0,9.299,0,18.295,0,27.339c8.304,0,16.204,0,24.377,0
		C882.364,290.196,882.364,281.309,882.364,272.005z"/>
	<path fill="#FFFFFF" d="M1609.923,101.662c0-9.393,0-18.144,0-27.121c-8.252,0-16.165,0-24.374,0c0,9.157,0,18.04,0,27.121
		C1593.811,101.662,1601.726,101.662,1609.923,101.662z"/>
	<path fill="#FFFFFF" d="M674.83,101.594c8.473,0,16.378,0,24.382,0c0-9.213,0-18.069,0-26.979c-8.338,0-16.241,0-24.382,0
		C674.83,83.713,674.83,92.463,674.83,101.594z"/>
	<path fill-rule="evenodd" clip-rule="evenodd" fill="#FFFFFF" d="M1221.917,174.375c4.025-21.894,8.049-43.788,12.078-65.682
		c1.654-8.993,3.199-18.011,5.117-26.948c0.29-1.352,2.316-3.274,3.595-3.318c8.632-0.294,17.279-0.153,26.798-0.153
		c-1.608,7.036-3.084,13.585-4.604,20.124c-8.923,38.378-17.916,76.739-26.683,115.153c-0.803,3.519-2.107,4.584-5.59,4.469
		c-7.489-0.249-14.998-0.235-22.489-0.005c-3.348,0.104-4.556-1.109-5.216-4.324c-5.552-27.033-11.281-54.03-16.968-81.036
		c-0.101-0.476-0.315-0.926-0.976-2.811c-0.907,3.844-1.602,6.43-2.122,9.05c-4.988,25.119-9.996,50.235-14.841,75.383
		c-0.502,2.606-1.267,3.758-4.053,3.711c-7.995-0.136-15.996-0.135-23.992,0c-2.738,0.046-3.587-1.066-4.196-3.642
		c-10.481-44.327-21.092-88.623-31.653-132.93c-0.189-0.793-0.129-1.645-0.23-3.123c9.742,0,19.36-0.133,28.963,0.188
		c1.054,0.035,2.607,2.558,2.938,4.134c6.098,29.131,12.042,58.294,18.035,87.446c0.18,0.873,0.548,1.707,1.713,2.527
		c1.815-10.209,3.64-20.417,5.443-30.628c3.559-20.146,7.183-40.279,10.578-60.452c0.553-3.279,1.702-4.458,5.069-4.315
		c6.154,0.262,12.341,0.315,18.487-0.014c3.828-0.205,5.072,1.239,5.771,4.848c5.977,30.841,12.154,61.643,18.271,92.456
		C1221.414,174.448,1221.666,174.412,1221.917,174.375z"/>
	<path fill-rule="evenodd" clip-rule="evenodd" fill="#FFFFFF" d="M1048.763,414.25c-8.092,0-16.002,0-24.558,0
		c0-2.03,0-3.811,0-5.592c0-20.494,0.004-40.989-0.002-61.484c-0.003-11.69-5.292-17.481-16.081-17.636
		c-10.953-0.156-19.744,7.702-19.816,18.149c-0.142,20.161-0.043,40.323-0.045,60.484c0,1.941,0,3.883,0,6.075
		c-8.568,0-16.48,0-25.056,0c0-2.004,0-3.782,0-5.561c0-20.662,0.007-41.323-0.003-61.984c-0.006-10.623-4.42-15.967-14.056-17.069
		c-9.826-1.124-19.515,5.219-21.34,14.107c-0.431,2.099-0.519,4.296-0.523,6.449c-0.038,19.495-0.022,38.99-0.022,58.485
		c0,1.773,0,3.548,0,5.572c-8.409,0-16.162,0-24.297,0c0-33.884,0-67.59,0-101.954c6.711,0,13.32-0.113,19.916,0.123
		c0.977,0.034,2.404,1.562,2.736,2.665c0.787,2.613,1.041,5.388,1.54,8.266c22.778-19.035,43.757-17.853,58.767,3.318
		c0.791-0.899,1.547-1.733,2.276-2.592c10.359-12.191,26.751-17.014,42.023-12.074c11.202,3.624,17.956,11.976,18.292,23.251
		C1049.293,361.364,1048.763,387.517,1048.763,414.25z"/>
	<path fill-rule="evenodd" clip-rule="evenodd" fill="#FFFFFF" d="M658.677,346.851c-1.25,9.002-1.832,19.73-4.332,29.991
		c-7.721,31.69-30.548,42.389-59.681,39.14c-23.719-2.646-37.72-15.621-43.334-39.176c-5.012-21.029-5.152-42.327,0.058-63.323
		c7.661-30.877,29.345-41.976,58.276-39.219c26.555,2.531,41.474,17.609,46.086,45.122
		C657.175,327.886,657.611,336.552,658.677,346.851z M631.63,345.497c-1.584-9.995-2.346-20.023-4.893-29.576
		c-3.339-12.521-11.744-18.468-23.47-18.589c-12.114-0.126-20.652,5.649-24.327,18.223c-5.769,19.742-5.769,39.819,0.042,59.562
		c3.627,12.322,12.1,18.169,23.887,18.148c11.822-0.021,20.383-5.896,23.744-18.258C629.206,365.471,630.008,355.449,631.63,345.497
		z"/>
	<path fill-rule="evenodd" clip-rule="evenodd" fill="#FFFFFF" d="M601.354,186.309c8.087-28.399,15.825-55.559,23.554-82.721
		c2.047-7.194,3.961-14.431,6.192-21.567c0.446-1.428,2.016-3.523,3.127-3.562c8.759-0.294,17.532-0.163,26.838-0.163
		c-5.501,18.566-10.779,36.4-16.071,54.23c-7.992,26.93-16.077,53.833-23.894,80.814c-1.022,3.529-2.397,4.8-6.09,4.688
		c-8.821-0.267-17.665-0.304-26.483,0.01c-4.16,0.148-6.048-1.061-7.266-5.234c-12.283-42.121-24.799-84.174-37.246-126.247
		c-0.746-2.521-1.457-5.053-2.378-8.251c9.364,0,18.159-0.154,26.935,0.19c1.13,0.044,2.69,2.525,3.154,4.136
		c7.822,27.153,15.493,54.351,23.217,81.532C596.933,171.167,598.99,178.151,601.354,186.309z"/>
	<path fill-rule="evenodd" clip-rule="evenodd" fill="#FFFFFF" d="M702.578,416.503c0,12.373,0,25.278,0,38.494
		c-8.442,0-16.325,0-24.432,0c0-47.525,0-94.763,0-142.683c6.881,0,13.636-0.086,20.383,0.112c0.815,0.024,2.003,1.462,2.295,2.456
		c0.735,2.51,1.057,5.14,1.673,8.404c1.298-1.19,2.326-1.906,3.068-2.847c12.279-15.579,44.104-13.237,54.394,6.465
		c7.215,13.815,8.279,28.59,7.354,43.686c-0.283,4.618-1.043,9.278-2.209,13.757c-5.446,20.928-19.574,31.867-41.222,32.142
		C717.083,416.576,710.282,416.503,702.578,416.503z M702.76,395.705c6.258,0,12.05,0.062,17.839-0.015
		c8.12-0.108,14.385-3.751,17.284-11.285c5.584-14.515,5.388-29.403,0.068-43.903c-3.007-8.198-11.371-11.623-20.725-9.855
		c-8.07,1.524-14.231,7.999-14.382,16.271C702.553,362.898,702.76,378.886,702.76,395.705z"/>
	<path fill-rule="evenodd" clip-rule="evenodd" fill="#FFFFFF" d="M1381.193,74.522c8.031,0,15.795,0,24.309,0
		c0,16.771,0,33.423,0,51.498c6.035-6.794,11.777-11.219,19.484-12.742c18.73-3.701,35.132,4.991,41.297,22.985
		c5.806,16.947,6.263,34.38,1.276,51.604c-4.96,17.132-18.657,27.9-36.309,28.562c-15.965,0.599-31.962,0.361-47.944,0.473
		c-0.627,0.005-1.256-0.195-2.113-0.339C1381.193,169.206,1381.193,121.991,1381.193,74.522z M1405.886,196.692
		c6.186,0,11.827,0.108,17.463-0.024c9.138-0.216,15.749-4.608,18.471-13.301c1.717-5.479,2.768-11.37,2.887-17.102
		c0.175-8.438-0.089-17.034-4.254-24.799c-3.579-6.673-11.196-10.062-19.146-8.708c-8.129,1.385-15.048,7.385-15.273,14.954
		C1405.552,163.814,1405.886,179.94,1405.886,196.692z"/>
	<path fill-rule="evenodd" clip-rule="evenodd" fill="#FFFFFF" d="M1299.078,173.324c0.814,4.334,1.152,7.845,2.158,11.151
		c2.74,9.005,8.703,13.338,18.109,13.396c10.165,0.064,20.331,0.016,30.497,0.017c1.796,0,3.593,0,5.673,0c0,5.811,0,11.066,0,16.69
		c-16.975,3.767-34.082,6.175-51.352,2.354c-14.432-3.191-23.607-12.645-27.813-26.604c-4.512-14.976-4.823-30.238-0.702-45.348
		c5.393-19.776,19.154-30.473,40.826-32.114c9.903-0.75,19.626,0.1,28.754,4.542c15.81,7.695,22.279,25.41,14.99,41.454
		c-5.048,11.111-14.85,14.148-25.886,14.402C1322.875,173.528,1311.408,173.324,1299.078,173.324z M1300.033,156.899
		c9.794,0,19.385,0.292,28.945-0.124c4.757-0.207,7.756-3.649,8.783-8.274c1.076-4.84-0.535-9.1-4.686-11.676
		c-2.703-1.679-6.048-2.97-9.191-3.187C1309.878,132.671,1301.265,141.237,1300.033,156.899z"/>
	<path fill-rule="evenodd" clip-rule="evenodd" fill="#FFFFFF" d="M1726.001,173.324c1.251,5.163,1.809,9.501,3.365,13.445
		c2.91,7.374,8.612,11.144,16.679,11.122c10.327-0.026,20.654-0.004,30.981-0.003c1.789,0,3.578,0,5.629,0
		c0,5.805,0,11.067,0,16.774c-17.152,3.577-34.369,6.216-51.791,2.114c-14.654-3.449-23.537-13.292-27.604-27.425
		c-3.734-12.983-4.179-26.266-1.524-39.525c4.638-23.166,19.369-35.838,42.957-37.055c11.315-0.585,22.276,0.666,32.084,7.104
		c15.176,9.963,16.173,28.361,9.789,40.709c-5.026,9.721-14.371,12.368-24.435,12.673c-9.819,0.296-19.653,0.065-29.48,0.065
		C1730.857,173.325,1729.062,173.324,1726.001,173.324z M1727.181,157.109c9.646,0,18.945,0.412,28.186-0.15
		c5.791-0.353,8.979-4.092,9.679-9.087c0.733-5.228-1.378-10.383-6.604-12.096c-4.669-1.53-10.133-2.313-14.909-1.485
		C1733.781,135.981,1728.693,143.833,1727.181,157.109z"/>
	<path fill-rule="evenodd" clip-rule="evenodd" fill="#FFFFFF" d="M1003.705,216.348c-7.503,0-14.765,0-22.196,0
		c-0.657-3.416-1.274-6.621-1.964-10.204c-0.743,0.495-1.359,0.738-1.736,1.183c-10.129,11.934-23.306,13.199-37.347,10.14
		c-9.048-1.972-15.176-7.93-18.593-16.576c-9.307-23.55,4.59-44.14,29.908-44.276c8.985-0.048,17.971-0.008,28.088-0.008
		c-0.486-5.481-0.236-10.852-1.587-15.783c-1.671-6.102-7.351-7.205-12.89-7.274c-10.99-0.137-21.983-0.042-32.975-0.044
		c-1.812,0-3.625,0-5.822,0c0-5.577,0-10.811,0-16.587c18.312-3.216,36.668-6.418,55.283-2.664
		c13.312,2.686,21.168,10.488,21.592,23.904C1004.285,164.076,1003.705,190.038,1003.705,216.348z M979.049,172.638
		c-7.731,0-15.228-0.382-22.664,0.112c-6.726,0.448-10.718,4.5-11.638,10.391c-1.723,11.032,6.527,18.327,18.409,16.276
		C975.595,197.27,981.245,187.941,979.049,172.638z"/>
	<path fill-rule="evenodd" clip-rule="evenodd" fill="#FFFFFF" d="M1233.291,370.944c-0.667,16.312,7.3,24.752,22.733,24.767
		c10.491,0.01,20.983,0.042,31.476,0.081c0.308,0.001,0.615,0.182,1.715,0.528c0,4.487,0.124,9.237-0.113,13.97
		c-0.043,0.852-1.457,2.154-2.428,2.364c-15.694,3.378-31.504,5.658-47.49,2.327c-15.014-3.129-24.822-12.287-29.242-26.942
		c-4.625-15.342-4.761-30.919-0.559-46.302c4.983-18.238,19.415-29.572,38.547-30.996c9.498-0.707,18.943-0.583,28.006,3.026
		c16.043,6.391,23.693,21.202,19.522,37.886c-2.73,10.921-10.706,17.996-22.423,18.784c-9.619,0.647-19.299,0.386-28.952,0.501
		C1240.603,370.979,1237.123,370.944,1233.291,370.944z M1233.851,354.886c8.404,0,16.51,0.045,24.615-0.013
		c7.893-0.056,12.326-3.548,13.017-10.103c0.649-6.162-4.074-11.775-11.095-13.184
		C1245.707,328.642,1234.071,338.488,1233.851,354.886z"/>
	<path fill-rule="evenodd" clip-rule="evenodd" fill="#FFFFFF" d="M816.819,114.984c7.904,0,15.813,0,24.442,0
		c0,2.115,0,4.048,0,5.979c0,20.498-0.004,40.997,0.002,61.495c0.003,10.688,4.764,16.25,14.633,17.129
		c10.034,0.893,19.733-5.954,21.158-15.061c0.384-2.454,0.502-4.972,0.508-7.461c0.041-18.832,0.022-37.664,0.022-56.495
		c0-1.783,0-3.566,0-5.596c8.385,0,16.139,0,24.285,0c0,33.725,0,67.3,0,101.254c-7.256,0-14.639,0-22.307,0
		c-0.643-3.257-1.279-6.485-2.071-10.5c-1.457,1.371-2.56,2.479-3.734,3.504c-11.625,10.155-25.135,11.862-39.284,7.514
		c-12.958-3.983-17.85-14.705-18.097-27.146c-0.484-24.321-0.13-48.659-0.099-72.989
		C816.28,116.152,816.575,115.694,816.819,114.984z"/>
	<path fill-rule="evenodd" clip-rule="evenodd" fill="#FFFFFF" d="M1486.586,197.888c8.74,0,16.86,0.002,24.979-0.001
		c5.164-0.002,10.365,0.371,15.476-0.15c3.339-0.341,6.987-1.329,9.72-3.177c5.823-3.938,5.375-12.083-0.965-15.051
		c-5.035-2.357-10.729-3.298-16.117-4.911c-5.559-1.664-11.317-2.882-16.604-5.178c-10.677-4.636-15.694-13.249-16.087-24.842
		c-0.416-12.252,4.521-21.23,15.57-26.67c10.509-5.173,21.842-5.81,33.178-5.068c8.912,0.583,17.751,2.271,26.8,3.493
		c0,6.007,0,11.258,0,17.171c-10.089,0-20.022-0.1-29.952,0.051c-3.795,0.058-7.657,0.339-11.35,1.149
		c-3.971,0.871-6.943,3.349-7.329,7.78c-0.38,4.374,1.897,7.67,5.692,9.068c5.732,2.111,11.788,3.328,17.652,5.103
		c4.758,1.438,9.588,2.793,14.118,4.791c11.743,5.181,16.737,14.688,16.243,27.22c-0.492,12.499-6.321,21.427-18.119,26.197
		c-12.977,5.247-26.521,3.937-39.943,3.27c-6.279-0.312-12.491-1.836-18.76-2.592c-3.33-0.401-4.477-1.947-4.263-5.244
		C1486.781,206.367,1486.586,202.406,1486.586,197.888z"/>
	<path fill-rule="evenodd" clip-rule="evenodd" fill="#FFFFFF" d="M717.586,197.887c13.327,0,25.791,0.118,38.25-0.08
		c3.249-0.052,6.659-0.629,9.677-1.791c3.824-1.473,5.993-4.73,6.019-8.984c0.026-4.177-2.31-7.117-6.049-8.3
		c-6.317-1.998-12.818-3.41-19.224-5.136c-3.042-0.819-6.114-1.606-9.05-2.728c-13.726-5.242-19.621-14.262-19.281-29.246
		c0.281-12.377,7.432-21.639,20.557-25.785c15.512-4.899,31.221-3.688,46.898-0.665c2.598,0.501,5.161,1.181,7.973,1.832
		c0,5.406,0,10.652,0,16.5c-10.876,0-21.48-0.074-32.081,0.048c-2.961,0.034-5.981,0.373-8.854,1.067
		c-3.932,0.95-7.076,3.125-7.549,7.587c-0.512,4.83,2.036,8.104,6.236,9.735c4.152,1.613,8.612,2.415,12.879,3.757
		c6.792,2.135,13.844,3.774,20.233,6.793c10.441,4.933,14.603,14.218,14.353,25.388c-0.262,11.699-4.95,21.22-16.164,25.907
		c-5.729,2.396-12.138,4.526-18.214,4.462c-14.082-0.151-28.148-1.717-42.222-2.697c-3.162-0.221-4.716-1.551-4.455-5.04
		C717.814,206.56,717.586,202.57,717.586,197.887z"/>
	<path fill-rule="evenodd" clip-rule="evenodd" fill="#FFFFFF" d="M1112.182,331.987c0-6.985,0-13.085,0-19.45
		c26.165,0,52.073,0,78.315,0c0.471,9.369,1.332,17.875-5.702,26.157c-14.216,16.736-27.156,34.557-40.61,51.939
		c-0.787,1.019-1.465,2.121-2.671,3.88c17.355,0,34.038,0,51.061,0c0,6.78,0,13.02,0,19.628c-27.321,0-54.691,0-82.637,0
		c0-5.524-0.231-10.983,0.133-16.401c0.117-1.75,1.612-3.538,2.79-5.066c14.439-18.727,28.94-37.405,43.414-56.104
		c0.967-1.251,1.844-2.571,3.277-4.582C1143.3,331.987,1127.903,331.987,1112.182,331.987z"/>
	<path fill-rule="evenodd" clip-rule="evenodd" fill="#FFFFFF" d="M842.683,331.49c-8.38,0-16.329,0-24.733,0
		c-0.116,1.917-0.292,3.51-0.294,5.102c-0.021,16.165-0.032,32.33-0.005,48.495c0.014,8.371,2.187,10.509,10.724,10.608
		c4.635,0.054,9.271,0.01,14.533,0.01c0,5.154,0.124,9.931-0.108,14.689c-0.045,0.922-1.319,2.229-2.307,2.59
		c-9.903,3.614-20.055,4.872-30.394,2.202c-10.349-2.672-16.828-10.657-17.078-21.936c-0.41-18.485-0.317-36.981-0.434-55.473
		c-0.012-1.95-0.001-3.9-0.001-6.202c-5.266,0-9.896,0-15.337,0c0-4.75-0.176-9.188,0.143-13.591c0.066-0.92,1.927-2.403,3.012-2.45
		c10.857-0.471,15.247-7.5,17.696-16.785c0.632-2.395,1.819-4.642,2.742-6.96c3.181-7.991,6.176-9.722,14.452-7.709
		c1.039,0.253,2.203,2.553,2.242,3.935c0.217,7.652,0.104,15.314,0.104,23.717c8.418,0,16.619,0,25.043,0
		C842.683,318.579,842.683,324.683,842.683,331.49z"/>
	<path fill-rule="evenodd" clip-rule="evenodd" fill="#FFFFFF" d="M1622.035,133.619c0-4.649-0.218-8.792,0.146-12.883
		c0.097-1.09,1.919-2.826,3.039-2.901c10.134-0.677,15.192-6.569,17.266-15.914c0.392-1.766,1.307-3.413,1.968-5.12
		c4.491-11.588,4.606-11.653,17.728-9.618c0,8.838,0,17.764,0,27.289c8.663,0,16.878,0,25.359,0c0,6.528,0,12.451,0,18.972
		c-8.222,0-16.445,0-25.278,0c0,2.372,0,4.157,0,5.941c0,15.329-0.002,30.659,0.001,45.988c0.002,11.214,1.322,12.508,12.751,12.515
		c4.113,0.003,8.227,0.001,12.797,0.001c0,5.285,0.161,9.923-0.123,14.533c-0.064,1.055-1.473,2.507-2.588,2.94
		c-8.712,3.39-17.83,4.311-26.984,2.854c-14.07-2.24-20.764-11.268-20.881-27.696c-0.123-16.995-0.028-33.992-0.029-50.987
		c0-1.792,0-3.584,0-5.913C1632,133.619,1627.255,133.619,1622.035,133.619z"/>
	<path fill-rule="evenodd" clip-rule="evenodd" fill="#FFFFFF" d="M1062.746,198.595c0,6.543,0,12.673,0,19.154
		c-9.457,1.036-18.674,1.134-27.614-2.169c-5.661-2.091-8.656-6.627-9.872-12.277c-0.73-3.394-1.176-6.919-1.183-10.387
		c-0.081-38.285-0.052-76.571-0.044-114.856c0-0.98,0.09-1.96,0.157-3.356c8.188,0,16.198,0,24.733,0c0,1.884,0,3.672,0,5.46
		c0,35.455,0,70.911,0,106.367c0,9.944,0.508,10.48,10.564,11.413C1060.466,198.035,1061.427,198.326,1062.746,198.595z"/>
	<path fill-rule="evenodd" clip-rule="evenodd" fill="#FFFFFF" d="M1314.868,312.287c6.781,0,13.235-0.164,19.667,0.157
		c1.099,0.055,2.744,2.05,3.016,3.378c0.794,3.881,1.021,7.879,1.596,12.934c7.572-12.703,18.217-18.409,32.383-18.253
		c0,8.022,0,15.762,0,23.703c-4.383,0.394-8.664,0.604-12.893,1.189c-13.221,1.826-19.363,8.894-19.371,22.093
		c-0.012,16.983-0.004,33.967-0.004,50.951c0,1.804,0,3.608,0,5.735c-8.347,0-16.228,0-24.394,0
		C1314.868,380.341,1314.868,346.762,1314.868,312.287z"/>
	<path fill-rule="evenodd" clip-rule="evenodd" fill="#FFFFFF" d="M674.899,114.872c8.372,0,16.156,0,24.341,0
		c0,33.827,0,67.504,0,101.628c-8.005,0-16.013,0-24.341,0C674.899,182.706,674.899,149.022,674.899,114.872z"/>
	<path fill-rule="evenodd" clip-rule="evenodd" fill="#FFFFFF" d="M1609.8,216.657c-8.057,0-15.967,0-24.237,0
		c0-33.862,0-67.544,0-101.588c7.99,0,15.88,0,24.237,0C1609.8,148.681,1609.8,182.348,1609.8,216.657z"/>
	<path fill-rule="evenodd" clip-rule="evenodd" fill="#FFFFFF" d="M1093.537,312.941c0,33.908,0,67.463,0,101.282
		c-8.176,0-16.067,0-24.235,0c0-33.837,0-67.392,0-101.282C1077.302,312.941,1085.204,312.941,1093.537,312.941z"/>
	<path fill-rule="evenodd" clip-rule="evenodd" fill="#FFFFFF" d="M882.281,414.216c-8.125,0-16.025,0-24.311,0
		c0-33.794,0-67.446,0-101.354c8.088,0,16.018,0,24.311,0C882.281,346.584,882.281,380.255,882.281,414.216z"/>
	<path fill-rule="evenodd" clip-rule="evenodd" fill="#FFFFFF" d="M1069.41,271.957c8.265,0,16.031,0,24.104,0
		c0,9.14,0,18.036,0,27.292c-7.918,0-15.815,0-24.104,0C1069.41,290.34,1069.41,281.321,1069.41,271.957z"/>
	<path fill-rule="evenodd" clip-rule="evenodd" fill="#FFFFFF" d="M882.364,272.005c0,9.304,0,18.19,0,27.339
		c-8.173,0-16.073,0-24.377,0c0-9.044,0-18.04,0-27.339C866.036,272.005,873.94,272.005,882.364,272.005z"/>
	<path fill-rule="evenodd" clip-rule="evenodd" fill="#FFFFFF" d="M1609.923,101.662c-8.197,0-16.112,0-24.374,0
		c0-9.081,0-17.964,0-27.121c8.209,0,16.122,0,24.374,0C1609.923,83.518,1609.923,92.269,1609.923,101.662z"/>
	<path fill-rule="evenodd" clip-rule="evenodd" fill="#FFFFFF" d="M674.83,101.594c0-9.131,0-17.881,0-26.979
		c8.141,0,16.044,0,24.382,0c0,8.909,0,17.766,0,26.979C691.208,101.594,683.302,101.594,674.83,101.594z"/>
</g>
<path fill="#FFFFFF" d="M411.854,401.358l-139.251-243.57c0,0-5.336-4.491-5.336-22.742c0-18.249,0-108.094,0-108.094
	s7.622,0,11.842,0c2.749,0,5.967-10.106,5.967-10.106V6.354c0,0-2.042-6.354-5.967-6.354c-10.518,0-29.809,0-29.809,0
	S160.09,0,138.626,0c-3.185,0-5.24,6.124-5.24,6.124s0,6.776,0,13.003c0,0.76,3.873,7.824,5.24,7.824c4.318,0,11.842,0,11.842,0
	s0,73.424,0,107.815c0,12.188-4.479,22.324-5.276,23.494C117.014,207.742,6.772,401.358,6.772,401.358s-37.215,83.806,62.836,83.806
	c48.091,0,222.203,0,278.519,0c52.615,0,67.403-26.294,69.245-49.425C418.82,417.573,411.854,401.358,411.854,401.358z
	 M388.469,433.442c-3.77,23.497-35.312,25.703-58.309,24.768c-30.073-1.225-208.979,0.463-242.582,0
	c-19.709-0.264-86.381,9.421-47.133-58.625C67.451,352.77,144.441,216.833,167.899,175.4c4.103-6.349,9.524-27.13,9.524-40.633
	c0-35.455,0-107.815,0-107.815h62.891v108.375c0,0-2.994,19.715,8.985,39.661c26.303,43.8,133.724,231.579,133.724,231.579
	S393.054,417.536,388.469,433.442z"/>
<polygon fill="#E5EA91" points="128.948,413.939 85.154,413.939 107.05,367.594 150.841,367.594 128.948,413.939 "/>
<polygon fill="#FFAF56" points="187.335,413.939 143.544,413.939 180.036,341.545 223.441,341.348 187.335,413.939 "/>
<polygon fill="#FF6E5E" points="245.726,413.939 201.932,413.939 231.126,358.515 274.92,358.515 245.726,413.939 "/>
<polyline fill="#DC2C4E" points="304.114,413.939 304.114,413.939 260.323,413.939 289.517,367.594 333.311,367.594 
	304.114,413.939 "/>
</svg>
